<svg xmlns="http://www.w3.org/2000/svg" xmlns:xlink="http://www.w3.org/1999/xlink" viewBox="0 0 1368 65.5">
    <defs>
        <style>
            .cls-1{fill:#001759;}.cls-2{fill:none;stroke:#0071bc;stroke-miterlimit:10;}.cls-3{font-size:33.53px;fill:#fff;font-family:FZDHTJW--GB1-0,
            FZDaHei-B02S;}.cls-4{fill:url(#未命名的渐变_8);}
        </style>
        <linearGradient id="未命名的渐变_8" x1="684.64" y1="50.02" x2="684.64" y2="19.11" gradientUnits="userSpaceOnUse">
            <stop offset="0" stop-color="#dbd9d9"/>
            <stop offset="0.15" stop-color="#c9c8c8"/>
            <stop offset="0.36" stop-color="#b3b3b3"/>
            <stop offset="0.45" stop-color="#ccc"/>
            <stop offset="0.56" stop-color="#e2e2e2"/>
            <stop offset="0.68" stop-color="#f2f2f2"/>
            <stop offset="0.82" stop-color="#fcfcfc"/>
            <stop offset="1" stop-color="#fff"/>
        </linearGradient>
    </defs>
    <title>资源 1</title>
    <g id="图层_2" data-name="图层 2">
        <g id="图层_1-2" data-name="图层 1">
            <path class="cls-1"
                  d="M1367.5,22.67H901.8a19.93,19.93,0,0,0-15.29,7.16l-23.43,28A20,20,0,0,1,847.79,65H524a19.89,19.89,0,0,1-14.29-6.06L480.38,28.73a19.93,19.93,0,0,0-14.29-6.06H.5V.5h1367Z"/>
            <path class="cls-2"
                  d="M1367.5,22.67H901.8a19.93,19.93,0,0,0-15.29,7.16l-23.43,28A20,20,0,0,1,847.79,65H524a19.89,19.89,0,0,1-14.29-6.06L480.38,28.73a19.93,19.93,0,0,0-14.29-6.06H.5V.5h1367Z"/>
            <text class="cls-3" transform="translate(534.2 46.36)">平煤股份十矿一张图</text>
            <path class="cls-4"
                  d="M539.05,20.29h23.84v3.8h-9.7V35H566v3.8H553.19V49.89h-4.45V38.76H536V35h12.71V24.09h-9.69Zm4.19,5c1,1.66,2.44,4.23,4.19,7.73a33.65,33.65,0,0,0-3.8,1.7c-.18-.44-.48-1.09-.92-2a55.58,55.58,0,0,0-3-5.63A27,27,0,0,0,543.24,25.27ZM558,25a38.35,38.35,0,0,1,4.32,2.1l-1.57,2.62-2.88,5c-.26-.18-.35-.22-.26-.13a30.63,30.63,0,0,0-3.41-1.71A41.15,41.15,0,0,0,558,25Z"/>
            <path class="cls-4"
                  d="M579.92,22.25h3.27v-3h3.54q.64.14.78.39a.64.64,0,0,1-.13.66,3.33,3.33,0,0,0-.26,1.18v.91h5.37V19.24h.79a21.69,21.69,0,0,1,3,.13c.52,0,.83.13.92.4a1.08,1.08,0,0,1-.14.39,1.92,1.92,0,0,0-.39,1.18v.91H599v3.28h-2.36v9.95h-5.24v1.84h8.25v3.27h-6c1.13,1.66,3.32,3.1,6.55,4.33a16.38,16.38,0,0,0-2.49,4.19,24.83,24.83,0,0,1-6.16-5.24v5.89h-4.19V43.61a22.92,22.92,0,0,1-6.55,5.63,16.19,16.19,0,0,0-3-3,17.31,17.31,0,0,0,7.07-5.64H580.7a4.76,4.76,0,0,0,.92,1.18,2.9,2.9,0,0,0,.39.66l-3.14,2.36a11.17,11.17,0,0,0-2.36-3.67,18.18,18.18,0,0,1-4.19,8.38,22.7,22.7,0,0,0-3-3,16.47,16.47,0,0,0,4.33-11.79l-2.1.39a4.64,4.64,0,0,0-.78.26v-.52q-.66-6.15-1.84-7.86c.35-.09.44-.13.26-.13a12.8,12.8,0,0,1,3.41-.66,33.84,33.84,0,0,1,1.18,5.11V19.5h2.62c1,0,1.48.09,1.57.27a2,2,0,0,1-.13.52,12.26,12.26,0,0,0-.26,2.49l-.13,9.56a32.6,32.6,0,0,0,1.31-6,16,16,0,0,1,3.53.79,32.55,32.55,0,0,1-2.35,8l-1.32-.39a10,10,0,0,1-1.17-.26v1.7c1,1.4,1.7,2.31,2,2.75V37.32h8.12V35.48h-4.32V25.53h-3.27Zm7.2,5.11h5.37V25.53h-5.37Zm0,4.85h5.37V30.38h-5.37Z"/>
            <path class="cls-4"
                  d="M611.61,38.37h-2.88a26.67,26.67,0,0,1-2.36,11.13,23.08,23.08,0,0,0-3.53-2.23,23.17,23.17,0,0,0,2.09-8.77V20.68h10.61V46.36c.09,1.39-1.66,2.27-5.24,2.62A10.32,10.32,0,0,0,609,45.05c1.75.17,2.62-.31,2.62-1.44Zm0-14.28h-2.88v3.8h2.88Zm0,11v-3.8h-2.75v3.8Zm5.11.79V32.34h1.84a12.69,12.69,0,0,0-2.62-2.62,7.84,7.84,0,0,0,2.88-4.85V20.42h10.35v5.63a1.21,1.21,0,0,0,.78,1.31,10.54,10.54,0,0,0,3.54,0c-.09.35-.18.79-.26,1.31a19.14,19.14,0,0,0-.53,2.49h-4.84q-3,.14-2.88-2.75V24.09h-2.36a9.8,9.8,0,0,1-3.54,8.25h11.53a24.37,24.37,0,0,1-3.15,10.35,19.4,19.4,0,0,0,6.42,2.49,26.54,26.54,0,0,0-2.75,4.19,28,28,0,0,1-6.68-3.28l-.26.27a51.31,51.31,0,0,1-5.37,3.4c-.26-.35-.35-.48-.26-.39a17.56,17.56,0,0,0-2.49-3,15.11,15.11,0,0,0,5.63-3.28q-2.1-2.22-3.14-7.2Zm5.5-.13a9.61,9.61,0,0,0,2.1,4.32,8.86,8.86,0,0,0,1.57-4.32Z"/>
            <path class="cls-4"
                  d="M645.15,33.39q4.32-4.59,5.63-13.49a.92.92,0,0,1,.39.13c2.71.52,4.11,1,4.2,1.31a10.8,10.8,0,0,1-.79,2.49A52.93,52.93,0,0,1,651.3,31h9.3a32,32,0,0,1-4.06-11,10.29,10.29,0,0,1,2.23-.26,5.13,5.13,0,0,1,1.83-.14,2.11,2.11,0,0,0,.14.66,12.53,12.53,0,0,0,.26,1.44,15.68,15.68,0,0,0,6.15,10.09l-.65.78a25,25,0,0,0-2.1,2.49,13.32,13.32,0,0,1-1.57-1.57c0,1,0,2.36-.13,4.19v6.94c0,1.66-.44,2.8-1.31,3.41s-2.53,1-5,1a3.61,3.61,0,0,0-.13-.66A9,9,0,0,0,655,45.18h.66c2,.09,3-.18,2.88-.79l.26-9.82H655c-.09,4-.48,6.81-1.18,8.38a19.55,19.55,0,0,1-5.11,6.68l-.65-.52c-1-.79-1.79-1.44-2.49-2a11.85,11.85,0,0,0,4.32-5q1-2.35,1-7.46h-2c-.62.78-1,1.18-1.18,1.18A10.09,10.09,0,0,0,645.15,34v15.2h-3.93V34.7a17.37,17.37,0,0,1-1.84,2.49l-1-1a6.87,6.87,0,0,0-1.31-.92l-.53-.39q4.85-6.15,6.29-15.72c3.06.61,4.72,1.14,5,1.57q.12.13-.39,1.05a11.48,11.48,0,0,0-.79,1.57q-.66,1.71-1.44,3.54Z"/>
            <path class="cls-4"
                  d="M670.3,30.9H683V19.63h4.46c.35.09.57.22.65.4s.09.26,0,.52a12.56,12.56,0,0,0-.39,3.28V30.9h12.44V35H687.72V49.5H683V35H670.3Z"/>
            <path class="cls-4"
                  d="M728.2,19.5c.17.09.39,1.58.65,4.46h5.24v3.66H723V34.7q.25,9.55-4.33,15.32a13.07,13.07,0,0,0-3.93-2.35l1.58-1.58h-3.54v-2H710v2.75h-3.54V38.23l-1.18,1.31A23.21,23.21,0,0,0,703,35.75a20.54,20.54,0,0,0,4.85-10.61H703.7V21.73h14v3.41h-5.51a35,35,0,0,1-1.44,5.24h5.9V45.57Q719,41,718.9,33.91V24h5.23a21.85,21.85,0,0,0-.78-3.28,2,2,0,0,1-.13-.52ZM710,40.86h2.75V33.78H710Z"/>
            <path class="cls-4" d="M737.63,35.88V31.55H767v4.33Z"/>
            <path class="cls-4"
                  d="M782,34.7V44.79a3.33,3.33,0,0,1-1.31,3.27q-1.44,1-5.76,1.44c-.35-1-.88-2.18-1.57-3.67a4.75,4.75,0,0,0-.27-.65c2,.17,3.32.09,3.93-.26.62-.18.92-.75.92-1.71v-5h-5.63V27.49H778v-3.4h-6.42V20.42H782V31H776.4V34.7ZM789.11,31h11.65v3.54h-6.28q.51,6.95,7.2,10.87a15.73,15.73,0,0,0-3.27,3.67q-6.95-5-7.6-14.54h-1.7V43a3.25,3.25,0,0,0,.91-.52c.61-.27,1.05-.44,1.31-.53a18.89,18.89,0,0,0,1,3.41c-1.49.87-3.23,2-5.24,3.27-.87.53-1.48.92-1.83,1.18-.27-.44-.83-1.44-1.71-3a5.94,5.94,0,0,1-.52-.79.36.36,0,0,0,.26-.13c1.14-.7,1.7-1.39,1.7-2.09v-9h-2.35V31H785V19.11h2.1a6,6,0,0,1,2.36.39,1.18,1.18,0,0,1-.13.4,5.18,5.18,0,0,0-.26,1.7Zm10.61-9q-3.15,3.54-7.08,8.25a21.37,21.37,0,0,0-3.14-2.62,18.87,18.87,0,0,0,5.24-7.72,23.94,23.94,0,0,1,5,1.83Z"/>
            <path class="cls-4"
                  d="M805.61,49.89V20.42h27.64V49.63h-4.19V48.32H809.8v1.57ZM809.8,24V45.05h12.58a58.61,58.61,0,0,0-9.17-2.75,13.73,13.73,0,0,1,1.31-3.15q5,1.18,11.13,3l-1.57,2.89h5V24H817.14a5.84,5.84,0,0,1,1.44.65,5.17,5.17,0,0,1,.79.26,12.63,12.63,0,0,1-.92,1.05h8.38A36.11,36.11,0,0,1,823,32.6a14.86,14.86,0,0,0,5.9,1.31,9.74,9.74,0,0,0-1.57,3.8,35.13,35.13,0,0,1-7.6-2.62l-1.84.66c.7.26,1.71.57,3,.91s2.31.79,3,1.05l-1.18,2.75c-.35-.08-1-.3-2-.65l-5-1.84a4.41,4.41,0,0,0,.65-1l.4-.79a46.13,46.13,0,0,1-5.24,2.09A24.64,24.64,0,0,0,810.07,35,19.14,19.14,0,0,0,817,32.73a6.93,6.93,0,0,1-1.31-1.57l-.4-.39-1.57,2.09a10.39,10.39,0,0,0-3.4-1.57A21.44,21.44,0,0,0,814.91,24Zm8.26,4.84a9.82,9.82,0,0,0,2,2,8.17,8.17,0,0,0,1.05-1.57,1.32,1.32,0,0,1,.26-.4Z"/>
        </g>
    </g>
</svg>
